<?xml version="1.0" encoding="UTF-8"?>
<svg xmlns="http://www.w3.org/2000/svg" viewBox="0 0 1340.6 465.84">
  <defs>
    <style>
      .cls-1 {
        fill: #dc2727;
        stroke: #dc2727;
        stroke-miterlimit: 10;
        stroke-width: 18px;
      }

      .cls-2 {
        fill: #231f20;
        stroke-width: 0px;
      }
    </style>
  </defs>
  <g id="Layer_2" data-name="Layer 2">
    <g>
      <path class="cls-2" d="M651.02,24.47c25.01-34.17,77.54-19.98,133.52,47.31,0,0,39.31,35.82,74.44,34.43,52.33,7.27,84.19-81.89,12.52-94.96-40.97-7.46-65.8,74.77.35,66.79-41.53,21.59-78.14-62.98-2.44-77.92,0,0,51.13-5.16,61.91,53.07,17.82,90.37-167.62,154.22-280.3,52.32V24.47Z"/>
      <path class="cls-2" d="M651.02,24.47c-25.01-34.17-77.54-19.98-133.52,47.31,0,0-39.31,35.82-74.44,34.43-52.33,7.27-84.19-81.89-12.52-94.96,40.97-7.46,65.8,74.77-.35,66.79,41.53,21.59,78.14-62.98,2.44-77.92,0,0-51.13-5.16-61.91,53.07-17.82,90.37,167.62,154.22,280.3,52.32V24.47Z"/>
    </g>
  </g>
  <g id="Layer_1" data-name="Layer 1">
    <g>
      <path class="cls-2" d="M30.9,209.34c18.3-18.9,44.1-31.2,72.6-31.2,48,0,85.8,30,97.8,77.4h-30c-11.1-31.5-36.9-47.4-67.8-47.4-20.1,0-38.4,8.7-51.6,22.5-13.2,13.8-21.6,32.4-21.6,54s8.4,39.6,21.6,53.4c13.2,13.8,31.5,22.5,51.6,22.5,31.8,0,58.8-18.3,69.6-50.1h29.7c-12,47.7-50.4,80.1-99.3,80.1-28.5,0-54.3-12-72.6-31.2C12.9,340.14.9,313.74.9,284.64s12-56.1,30-75.3Z"/>
      <path class="cls-2" d="M243.6,208.14c19.2-19.5,46.2-31.8,75.6-31.8s56.4,12.3,75.9,31.8c18.9,19.5,31.2,46.2,31.2,75.9s-12.3,56.4-31.2,75.9c-19.5,19.8-46.2,31.8-75.9,31.8s-56.4-12-75.6-31.8c-18.9-19.5-31.2-46.2-31.2-75.9s12.3-56.4,31.2-75.9ZM373.5,229.74c-14.1-14.1-33.6-22.8-54.3-22.8s-39.9,8.7-53.7,22.8c-13.8,13.8-22.5,33-22.5,54.3s8.7,40.5,22.5,54.3c13.8,14.1,33,22.8,53.7,22.8s40.2-8.7,54.3-22.8c13.5-13.8,22.2-32.7,22.2-54.3s-8.7-40.5-22.2-54.3Z"/>
      <path class="cls-1" d="M526.8,179.34c68.7,0,103.2,52.5,103.2,105s-34.5,104.7-103.2,104.7h-5.4c-38.6,0-69.9-31.3-69.9-69.9v-139.8h75.3ZM526.8,358.74c48.6,0,73.2-37.2,73.2-74.4s-24.6-74.7-73.2-74.7h-45v104.63c0,24.56,19.91,44.47,44.47,44.47h.53Z"/>
      <path class="cls-2" d="M686.9,358.74h97.5v30.3h-128.1v-209.7h127.8v30.3h-97.2v59.1h95.1v30.6h-95.1v59.4Z"/>
      <path class="cls-2" d="M936.2,209.04c4.8,12.6,4.8,27.6,0,40.5-4.5,11.4-12.6,21-24.6,26.1,61.5,10.8,57.9,113.4-11.1,113.4h-93.3v-209.7h84.9c22.8,0,37.5,12.9,44.1,29.7ZM812,274.44h80.1c20.7,0,33.9-11.7,39.9-26.7,4.5-11.7,4.5-25.2,0-36.9-6-15-19.2-26.7-39.9-26.7h-80.1v90.3ZM812,384.54h88.5c66.9,0,66.9-105.3,0-105.3h-88.5v105.3Z"/>
      <path class="cls-2" d="M980.3,389.04h-4.5v-210h72.6c84,0,84,122.7,0,122.7h-33.9l96.6,87.3h-6.9l-96.6-87.3v-4.5h40.8c78,0,78-113.4,0-113.4h-68.1v205.2Z"/>
      <path class="cls-2" d="M1157.6,207.84c19.2-19.8,46.2-31.8,75.6-31.8s56.4,12,75.9,31.8c19.2,19.5,31.5,46.5,31.5,76.2s-12.3,56.7-31.5,76.2c-19.5,19.8-46.2,31.8-75.9,31.8s-56.4-12-75.6-31.8c-19.2-19.5-31.5-46.5-31.5-76.2s12.3-56.7,31.5-76.2ZM1305.8,211.44c-18.6-18.9-44.4-30.6-72.6-30.6s-53.7,11.7-72.3,30.6c-18.3,18.6-30,44.1-30,72.6s11.7,54,30,72.6c18.6,18.9,44.1,30.6,72.3,30.6s54-11.7,72.6-30.6c18.3-18.6,29.7-44.1,29.7-72.6s-11.4-54-29.7-72.6Z"/>
    </g>
  </g>
</svg>